# xmcd
#
# Track frame offsets: 
#        150
#        27060
#        52737
#        84480
#        106179
#        122928
#        143970
#        162798
#        189618
#        212217
#
# Disc length: 3120 seconds
#
# Revision: 0
# Processed by: cddbd v1.5.2PL0 Copyright (c) Steve Scherf et al.
# Submitted via: ExactAudioCopy v1.0b3
#
DISCID=810c2e0a
DTITLE=Yen Khoa - Con Me Tinh Ai
DYEAR=1997
DGENRE=
TTITLE0=Yen Khoa, Chau Tuan - Sao em no voi lay chong
TTITLE1=Con me tinh ai
TTITLE2=Ngau hung Ly ru con
TTITLE3=Lo mai doi chia cach
TTITLE4=Yen Khoa, Khanh Duy - Trai tim con trinh
TTITLE5=Dem tien biet
TTITLE6=Beo dat may troi
TTITLE7=Noi sau tuong tu
TTITLE8=Em mat anh
TTITLE9=Yen Khoa, Khanh Duy - Cau hat Ly theo chong
EXTD=
EXTT0=
EXTT1=
EXTT2=
EXTT3=
EXTT4=
EXTT5=
EXTT6=
EXTT7=
EXTT8=
EXTT9=
PLAYORDER=
